<mxfile host="app.diagrams.net" agent="Mozilla/5.0 (Windows NT 10.0; Win64; x64) AppleWebKit/537.36 (KHTML, like Gecko) Chrome/129.0.0.0 Safari/537.36" version="24.7.17">
  <diagram name="PÃ¡gina-1" id="71pjXaBnQ7cRSnU2qKGP">
    <mxGraphModel dx="1247" dy="647" grid="1" gridSize="10" guides="1" tooltips="1" connect="1" arrows="1" fold="1" page="1" pageScale="1" pageWidth="827" pageHeight="1169" math="0" shadow="0">
      <root>
        <mxCell id="0" />
        <mxCell id="1" parent="0" />
        <mxCell id="yrYXCM0s9pd2o91WFh4q-1" value="Cliente" style="shape=umlActor;verticalLabelPosition=bottom;verticalAlign=top;html=1;outlineConnect=0;" vertex="1" parent="1">
          <mxGeometry x="30" y="60" width="30" height="60" as="geometry" />
        </mxCell>
        <mxCell id="yrYXCM0s9pd2o91WFh4q-3" value="&lt;div&gt;&lt;br&gt;&lt;/div&gt;&lt;div&gt;&lt;br&gt;&lt;/div&gt;" style="html=1;whiteSpace=wrap;fillColor=none;dashed=1;strokeWidth=2;" vertex="1" parent="1">
          <mxGeometry x="120" y="50" width="820" height="730" as="geometry" />
        </mxCell>
        <mxCell id="yrYXCM0s9pd2o91WFh4q-4" value="Loja (operador)" style="shape=umlActor;verticalLabelPosition=bottom;verticalAlign=top;html=1;" vertex="1" parent="1">
          <mxGeometry x="970" y="70" width="30" height="60" as="geometry" />
        </mxCell>
        <mxCell id="yrYXCM0s9pd2o91WFh4q-7" value="Fazer um Pedido" style="ellipse;whiteSpace=wrap;html=1;" vertex="1" parent="1">
          <mxGeometry x="180" y="120" width="140" height="70" as="geometry" />
        </mxCell>
        <mxCell id="yrYXCM0s9pd2o91WFh4q-11" value="" style="endArrow=none;html=1;rounded=0;exitX=0;exitY=0.5;exitDx=0;exitDy=0;" edge="1" parent="1" source="yrYXCM0s9pd2o91WFh4q-7" target="yrYXCM0s9pd2o91WFh4q-1">
          <mxGeometry width="50" height="50" relative="1" as="geometry">
            <mxPoint x="340" y="270" as="sourcePoint" />
            <mxPoint x="390" y="220" as="targetPoint" />
          </mxGeometry>
        </mxCell>
        <mxCell id="yrYXCM0s9pd2o91WFh4q-12" value="Visualizar o menu" style="ellipse;whiteSpace=wrap;html=1;" vertex="1" parent="1">
          <mxGeometry x="300" y="190" width="140" height="70" as="geometry" />
        </mxCell>
        <mxCell id="yrYXCM0s9pd2o91WFh4q-14" value="" style="endArrow=none;html=1;rounded=0;entryX=0.5;entryY=1;entryDx=0;entryDy=0;" edge="1" parent="1" source="yrYXCM0s9pd2o91WFh4q-12" target="yrYXCM0s9pd2o91WFh4q-7">
          <mxGeometry width="50" height="50" relative="1" as="geometry">
            <mxPoint x="340" y="270" as="sourcePoint" />
            <mxPoint x="390" y="220" as="targetPoint" />
          </mxGeometry>
        </mxCell>
        <mxCell id="yrYXCM0s9pd2o91WFh4q-15" value="Selecionar itens" style="ellipse;whiteSpace=wrap;html=1;" vertex="1" parent="1">
          <mxGeometry x="180" y="260" width="140" height="70" as="geometry" />
        </mxCell>
        <mxCell id="yrYXCM0s9pd2o91WFh4q-16" value="" style="endArrow=none;html=1;rounded=0;entryX=0.5;entryY=1;entryDx=0;entryDy=0;" edge="1" parent="1" source="yrYXCM0s9pd2o91WFh4q-15" target="yrYXCM0s9pd2o91WFh4q-12">
          <mxGeometry width="50" height="50" relative="1" as="geometry">
            <mxPoint x="340" y="400" as="sourcePoint" />
            <mxPoint x="250" y="320" as="targetPoint" />
          </mxGeometry>
        </mxCell>
        <mxCell id="yrYXCM0s9pd2o91WFh4q-17" value="Personalizar pedido" style="ellipse;whiteSpace=wrap;html=1;" vertex="1" parent="1">
          <mxGeometry x="310" y="320" width="140" height="70" as="geometry" />
        </mxCell>
        <mxCell id="yrYXCM0s9pd2o91WFh4q-18" value="" style="endArrow=none;html=1;rounded=0;entryX=0.5;entryY=1;entryDx=0;entryDy=0;" edge="1" parent="1" source="yrYXCM0s9pd2o91WFh4q-17" target="yrYXCM0s9pd2o91WFh4q-15">
          <mxGeometry width="50" height="50" relative="1" as="geometry">
            <mxPoint x="340" y="530" as="sourcePoint" />
            <mxPoint x="250" y="450" as="targetPoint" />
          </mxGeometry>
        </mxCell>
        <mxCell id="yrYXCM0s9pd2o91WFh4q-19" value="Selecionar forma de pagamento" style="ellipse;whiteSpace=wrap;html=1;" vertex="1" parent="1">
          <mxGeometry x="190" y="400" width="140" height="70" as="geometry" />
        </mxCell>
        <mxCell id="yrYXCM0s9pd2o91WFh4q-20" value="" style="endArrow=none;html=1;rounded=0;entryX=0.5;entryY=1;entryDx=0;entryDy=0;" edge="1" parent="1" source="yrYXCM0s9pd2o91WFh4q-19" target="yrYXCM0s9pd2o91WFh4q-17">
          <mxGeometry width="50" height="50" relative="1" as="geometry">
            <mxPoint x="340" y="660" as="sourcePoint" />
            <mxPoint x="250" y="580" as="targetPoint" />
          </mxGeometry>
        </mxCell>
        <mxCell id="yrYXCM0s9pd2o91WFh4q-22" value="Finalizar o pedido" style="ellipse;whiteSpace=wrap;html=1;" vertex="1" parent="1">
          <mxGeometry x="190" y="515" width="140" height="70" as="geometry" />
        </mxCell>
        <mxCell id="yrYXCM0s9pd2o91WFh4q-23" value="" style="endArrow=none;html=1;rounded=0;exitX=0.5;exitY=0;exitDx=0;exitDy=0;entryX=0.5;entryY=1;entryDx=0;entryDy=0;" edge="1" parent="1" source="yrYXCM0s9pd2o91WFh4q-22" target="yrYXCM0s9pd2o91WFh4q-19">
          <mxGeometry width="50" height="50" relative="1" as="geometry">
            <mxPoint x="340" y="440" as="sourcePoint" />
            <mxPoint x="390" y="390" as="targetPoint" />
          </mxGeometry>
        </mxCell>
        <mxCell id="yrYXCM0s9pd2o91WFh4q-26" value="Receber o pedido" style="ellipse;whiteSpace=wrap;html=1;" vertex="1" parent="1">
          <mxGeometry x="740" y="100" width="140" height="70" as="geometry" />
        </mxCell>
        <mxCell id="yrYXCM0s9pd2o91WFh4q-27" value="Acompanhar o status do pedido" style="ellipse;whiteSpace=wrap;html=1;" vertex="1" parent="1">
          <mxGeometry x="460" y="515" width="140" height="70" as="geometry" />
        </mxCell>
        <mxCell id="yrYXCM0s9pd2o91WFh4q-28" value="" style="endArrow=none;html=1;rounded=0;entryX=1;entryY=0.5;entryDx=0;entryDy=0;" edge="1" parent="1" source="yrYXCM0s9pd2o91WFh4q-4" target="yrYXCM0s9pd2o91WFh4q-26">
          <mxGeometry width="50" height="50" relative="1" as="geometry">
            <mxPoint x="1030" y="188" as="sourcePoint" />
            <mxPoint x="910" y="130" as="targetPoint" />
          </mxGeometry>
        </mxCell>
        <mxCell id="yrYXCM0s9pd2o91WFh4q-29" value="Visualizar o pedido" style="ellipse;whiteSpace=wrap;html=1;" vertex="1" parent="1">
          <mxGeometry x="620" y="190" width="140" height="70" as="geometry" />
        </mxCell>
        <mxCell id="yrYXCM0s9pd2o91WFh4q-30" value="Confirmar o pedido" style="ellipse;whiteSpace=wrap;html=1;" vertex="1" parent="1">
          <mxGeometry x="770" y="260" width="140" height="70" as="geometry" />
        </mxCell>
        <mxCell id="yrYXCM0s9pd2o91WFh4q-31" value="Alterar o status do pedido" style="ellipse;whiteSpace=wrap;html=1;" vertex="1" parent="1">
          <mxGeometry x="610" y="340" width="140" height="70" as="geometry" />
        </mxCell>
        <mxCell id="yrYXCM0s9pd2o91WFh4q-32" value="Finalizar o pedido" style="ellipse;whiteSpace=wrap;html=1;" vertex="1" parent="1">
          <mxGeometry x="770" y="410" width="140" height="70" as="geometry" />
        </mxCell>
        <mxCell id="yrYXCM0s9pd2o91WFh4q-33" value="&amp;lt;&amp;lt;extend&amp;gt;&amp;gt;" style="html=1;verticalAlign=bottom;endArrow=open;dashed=1;endSize=8;curved=0;rounded=0;entryX=1;entryY=0.5;entryDx=0;entryDy=0;exitX=0;exitY=0.5;exitDx=0;exitDy=0;" edge="1" parent="1" source="yrYXCM0s9pd2o91WFh4q-27" target="yrYXCM0s9pd2o91WFh4q-22">
          <mxGeometry relative="1" as="geometry">
            <mxPoint x="630" y="390" as="sourcePoint" />
            <mxPoint x="550" y="390" as="targetPoint" />
          </mxGeometry>
        </mxCell>
        <mxCell id="yrYXCM0s9pd2o91WFh4q-34" value="" style="endArrow=none;html=1;rounded=0;entryX=0.5;entryY=0;entryDx=0;entryDy=0;exitX=0;exitY=0.5;exitDx=0;exitDy=0;" edge="1" parent="1" source="yrYXCM0s9pd2o91WFh4q-30" target="yrYXCM0s9pd2o91WFh4q-31">
          <mxGeometry width="50" height="50" relative="1" as="geometry">
            <mxPoint x="780" y="310" as="sourcePoint" />
            <mxPoint x="690" y="340" as="targetPoint" />
          </mxGeometry>
        </mxCell>
        <mxCell id="yrYXCM0s9pd2o91WFh4q-36" value="" style="endArrow=none;html=1;rounded=0;entryX=0.5;entryY=0;entryDx=0;entryDy=0;exitX=0;exitY=1;exitDx=0;exitDy=0;" edge="1" parent="1" source="yrYXCM0s9pd2o91WFh4q-26" target="yrYXCM0s9pd2o91WFh4q-29">
          <mxGeometry width="50" height="50" relative="1" as="geometry">
            <mxPoint x="780" y="305" as="sourcePoint" />
            <mxPoint x="700" y="360" as="targetPoint" />
          </mxGeometry>
        </mxCell>
        <mxCell id="yrYXCM0s9pd2o91WFh4q-37" value="" style="endArrow=none;html=1;rounded=0;entryX=1;entryY=0.602;entryDx=0;entryDy=0;exitX=0.5;exitY=0;exitDx=0;exitDy=0;entryPerimeter=0;" edge="1" parent="1" source="yrYXCM0s9pd2o91WFh4q-30" target="yrYXCM0s9pd2o91WFh4q-29">
          <mxGeometry width="50" height="50" relative="1" as="geometry">
            <mxPoint x="771" y="170" as="sourcePoint" />
            <mxPoint x="700" y="200" as="targetPoint" />
          </mxGeometry>
        </mxCell>
        <mxCell id="yrYXCM0s9pd2o91WFh4q-38" value="" style="endArrow=none;html=1;rounded=0;entryX=1;entryY=0.5;entryDx=0;entryDy=0;exitX=0.5;exitY=0;exitDx=0;exitDy=0;" edge="1" parent="1" source="yrYXCM0s9pd2o91WFh4q-32" target="yrYXCM0s9pd2o91WFh4q-31">
          <mxGeometry width="50" height="50" relative="1" as="geometry">
            <mxPoint x="850" y="270" as="sourcePoint" />
            <mxPoint x="770" y="242" as="targetPoint" />
          </mxGeometry>
        </mxCell>
      </root>
    </mxGraphModel>
  </diagram>
</mxfile>
